<svg width="120" height="120" viewBox="0 0 120 120" fill="none" xmlns="http://www.w3.org/2000/svg">
<g clip-path="url(#clip0_2476_41591)">
<rect width="120" height="120" rx="60" fill="white"/>
<path d="M60 0C93.1401 0 120 26.8653 120 60C120 93.1401 93.1401 120 60 120C26.8653 120 0 93.1374 0 60C0 26.8653 26.8653 0 60 0Z" fill="#F5AC37"/>
<path d="M62.2112 64.2363H85.0103C85.4963 64.2363 85.7258 64.2363 85.7609 63.5991C85.9472 61.2798 85.9472 58.947 85.7609 56.625C85.7609 56.1741 85.5368 55.9878 85.0481 55.9878H39.6741C39.1125 55.9878 38.9613 56.1741 38.9613 56.7006V63.375C38.9613 64.2363 38.9613 64.2363 39.8604 64.2363H62.2112ZM83.2147 48.1874C83.2795 48.0173 83.2795 47.831 83.2147 47.6636C82.834 46.8347 82.3831 46.0436 81.8593 45.3011C81.0709 44.032 80.1421 42.8629 79.0837 41.8126C78.5842 41.1781 78.0064 40.6084 77.3584 40.1251C74.1129 37.363 70.2546 35.4082 66.1074 34.4253C64.0148 33.9555 61.8764 33.7314 59.7326 33.7503H39.5958C39.0342 33.7503 38.9586 33.9744 38.9586 34.4631V47.7743C38.9586 48.3359 38.9586 48.4871 39.6714 48.4871H82.9447C82.9447 48.4871 83.32 48.4115 83.3956 48.1874H83.212H83.2147ZM83.2147 72.0367C82.5775 71.9665 81.9349 71.9665 81.2977 72.0367H39.7119C39.1503 72.0367 38.9613 72.0367 38.9613 72.7873V85.8015C38.9613 86.4009 38.9613 86.5521 39.7119 86.5521H58.9118C59.8298 86.6223 60.7478 86.5575 61.6469 86.3658C64.4334 86.166 67.1739 85.5612 69.7875 84.5649C70.7379 84.2354 71.6559 83.8061 72.5226 83.2904H72.7845C77.2855 80.9495 80.9413 77.2721 83.2471 72.7576C83.2471 72.7576 83.509 72.1906 83.2147 72.0421V72.0367ZM31.4255 93.2994V93.0753V84.338V81.3761V72.5632C31.4255 72.0745 31.4255 72.0016 30.8261 72.0016H22.6882C22.2373 72.0016 22.051 72.0016 22.051 71.4022V64.2768H30.7505C31.2365 64.2768 31.4255 64.2768 31.4255 63.6396V56.5899C31.4255 56.139 31.4255 56.0283 30.8261 56.0283H22.6882C22.2373 56.0283 22.051 56.0283 22.051 55.4289V48.83C22.051 48.4169 22.051 48.3062 22.6504 48.3062H30.7127C31.2743 48.3062 31.4255 48.3062 31.4255 47.5934V27.381C31.4255 26.7816 31.4255 26.6304 32.1761 26.6304H60.2996C62.3408 26.7114 64.3685 26.9355 66.3747 27.3054C70.5084 28.0695 74.4801 29.5464 78.1117 31.6551C80.5201 33.0726 82.7368 34.7845 84.7105 36.7555C86.1956 38.2972 87.5348 39.9658 88.7228 41.7424C89.9027 43.5433 90.8828 45.4685 91.6523 47.48C91.7468 48.0038 92.249 48.3575 92.7728 48.2684H99.4851C100.346 48.2684 100.346 48.2684 100.384 49.0946V55.2453C100.384 55.8447 100.16 55.9959 99.558 55.9959H94.3821C93.8582 55.9959 93.707 55.9959 93.7448 56.6709C93.9501 58.9551 93.9501 61.2474 93.7448 63.5316C93.7448 64.1688 93.7448 64.2444 94.4603 64.2444H100.382C100.643 64.5819 100.382 64.9195 100.382 65.2597C100.419 65.6944 100.419 66.1345 100.382 66.5692V71.1079C100.382 71.7451 100.195 71.9341 99.6309 71.9341H92.5433C92.0492 71.8396 91.5686 72.1555 91.4552 72.6469C89.7677 77.0345 87.0677 80.9684 83.5792 84.122C82.3048 85.2696 80.9656 86.3496 79.567 87.3459C78.0658 88.2099 76.6051 89.109 75.0661 89.8218C72.2337 91.0962 69.2637 92.0358 66.2154 92.6325C63.3209 93.1509 60.386 93.3858 57.4403 93.3453H31.4147V93.3075L31.4255 93.2994Z" fill="#FEFEFD"/>
</g>
<defs>
<clipPath id="clip0_2476_41591">
<rect width="120" height="120" rx="60" fill="white"/>
</clipPath>
</defs>
</svg>
