<svg width="36" height="36" viewBox="0 0 36 36" fill="none" xmlns="http://www.w3.org/2000/svg">
<path d="M18 36C27.9411 36 36 27.9411 36 18C36 8.05887 27.9411 0 18 0C8.05887 0 0 8.05887 0 18C0 27.9411 8.05887 36 18 36Z" fill="#00C805"/>
<path d="M23.4638 16.7292C24.1508 17.3292 24.5348 17.9952 24.5348 18.6972C24.5348 21.3012 19.2578 23.4102 12.7478 23.4102C10.5578 23.4102 8.5058 23.1702 6.7478 22.7532C8.6108 24.3762 12.7088 25.5012 17.4608 25.5012C23.9708 25.5012 29.2478 23.3892 29.2478 20.7882C29.2508 19.0602 26.9258 17.5512 23.4638 16.7292Z" fill="#090909"/>
<path d="M21.6787 10.4991C22.2517 10.9971 22.5727 11.5521 22.5727 12.1371C22.5727 14.3061 18.1747 16.0671 12.7507 16.0671C10.9237 16.0671 9.21665 15.8661 7.74965 15.5211C9.30365 16.8711 12.7147 17.8101 16.6777 17.8101C22.1017 17.8101 26.4997 16.0521 26.4997 13.8801C26.4997 12.4401 24.5647 11.1831 21.6787 10.4991Z" fill="#090909"/>
</svg>
