<?xml version="1.0" encoding="UTF-8"?><svg id="Layer_1" xmlns="http://www.w3.org/2000/svg" xmlns:xlink="http://www.w3.org/1999/xlink" viewBox="0 0 595.28 585.82"><defs><style>.cls-1{fill:url(#linear-gradient-2);}.cls-1,.cls-2,.cls-3,.cls-4,.cls-5,.cls-6{isolation:isolate;opacity:.4;}.cls-2{fill:url(#linear-gradient-3);}.cls-3{fill:url(#linear-gradient-4);}.cls-4{fill:url(#linear-gradient-6);}.cls-5{fill:url(#linear-gradient-5);}.cls-6{fill:url(#linear-gradient-7);}.cls-7{fill:url(#linear-gradient);}.cls-8{fill:#fff;}.cls-9{fill:url(#radial-gradient);fill-opacity:.8;}</style><linearGradient id="linear-gradient" x1="-48.38" y1="557.77" x2="636.99" y2="34.16" gradientTransform="translate(294.49 -125.13) rotate(45)" gradientUnits="userSpaceOnUse"><stop offset=".18" stop-color="#ec9066"/><stop offset=".68" stop-color="#8f1a00"/></linearGradient><radialGradient id="radial-gradient" cx=".97" cy="842.03" fx=".97" fy="842.03" r=".94" gradientTransform="translate(-323996.96 393422.16) rotate(39.37) scale(501.17 -605.2) skewX(.1)" gradientUnits="userSpaceOnUse"><stop offset=".33" stop-color="#fff" stop-opacity="0"/><stop offset=".71" stop-color="#fff"/></radialGradient><linearGradient id="linear-gradient-2" x1="231.26" y1="618.87" x2="338.8" y2="738.36" gradientTransform="translate(.14 842.06) scale(1 -1)" gradientUnits="userSpaceOnUse"><stop offset=".06" stop-color="#111"/><stop offset=".43" stop-color="#7a7a7a" stop-opacity=".82"/><stop offset=".8" stop-color="#dad9d9" stop-opacity=".66"/><stop offset=".98" stop-color="#fff" stop-opacity=".6"/></linearGradient><linearGradient id="linear-gradient-3" x1="296.91" y1="692.24" x2="451.8" y2="526.09" xlink:href="#linear-gradient-2"/><linearGradient id="linear-gradient-4" x1="306.44" y1="539.79" x2="208.15" y2="640.78" xlink:href="#linear-gradient-2"/><linearGradient id="linear-gradient-5" x1="300.8" y1="415.22" x2="404.66" y2="512.53" xlink:href="#linear-gradient-2"/><linearGradient id="linear-gradient-6" x1="235.7" y1="473.49" x2="337.55" y2="369.16" gradientTransform="translate(.14 842.06) scale(1 -1)" gradientUnits="userSpaceOnUse"><stop offset=".06" stop-color="#111"/><stop offset=".43" stop-color="#9e9d9e" stop-opacity=".82"/><stop offset=".93" stop-color="#111"/></linearGradient><linearGradient id="linear-gradient-7" x1="291.61" y1="556.03" x2="395.98" y2="450.93" xlink:href="#linear-gradient-2"/></defs><ellipse class="cls-7" cx="298.3" cy="292.91" rx="269.6" ry="270.31" transform="translate(-119.75 296.72) rotate(-45)"/><ellipse class="cls-9" cx="298.3" cy="292.65" rx="269.6" ry="270.31" transform="translate(-73.98 482.48) rotate(-71.47)"/><path class="cls-8" d="m394.15,363.29l-27.12-27.12-76.35,76.35,27.12,27.12,76.35-76.35Z"/><path class="cls-8" d="m279.22,439.64l27.12-27.12-76.35-76.35-27.12,27.12,76.35,76.35Z"/><path class="cls-8" d="m228.61,389l27.12-27.12-27.12-27.12-27.12,27.12,27.12,27.12Z"/><path class="cls-8" d="m298.55,458.91l27.12-27.12-27.12-27.12-27.12,27.12,27.12,27.12Z"/><path class="cls-8" d="m367.9,389.55l27.12-27.12-27.12-27.12-27.12,27.12,27.12,27.12Z"/><path class="cls-8" d="m341.99,363.64l27.12-27.12-57.73-57.73-27.12,27.12,57.73,57.73Z"/><path class="cls-8" d="m202.38,222.55l27.12,27.12,76.35-76.35-27.12-27.12-76.35,76.35Z"/><path class="cls-8" d="m317.28,146.2l-27.12,27.12,76.35,76.35,27.12-27.12-76.35-76.35Z"/><path class="cls-8" d="m367.88,196.83l-27.12,27.12,27.12,27.12,27.12-27.12-27.12-27.12Z"/><path class="cls-8" d="m298,126.92l-27.12,27.12,27.12,27.12,27.12-27.12-27.12-27.12Z"/><path class="cls-8" d="m228.6,196.27l-27.12,27.12,27.12,27.12,27.12-27.12-27.12-27.12Z"/><path class="cls-8" d="m254.51,222.18l-27.12,27.12,57.73,57.73,27.12-27.12-57.73-57.73Z"/><path class="cls-8" d="m244.93,291.81c26.54,9.72,46.66,29.5,53.6,53.6,6.89-24.06,27.01-43.84,53.6-53.6-26.54-9.72-46.66-29.5-53.6-53.6-6.89,24.06-27.01,43.84-53.6,53.6Z"/><path class="cls-1" d="m202.4,222.53l27.12,27.12,76.35-76.35-27.12-27.12-76.35,76.35Z"/><path class="cls-2" d="m317.31,146.21l-27.12,27.12,76.35,76.35,27.12-27.12-76.35-76.35Z"/><path class="cls-8" d="m367.99,196.81l-27.12,27.12,27.12,27.12,27.12-27.12-27.12-27.12Z"/><path class="cls-8" d="m298.06,126.9l-27.12,27.12,27.12,27.12,27.12-27.12-27.12-27.12Z"/><path class="cls-3" d="m254.61,222.16l-27.12,27.12,57.73,57.73,27.12-27.12-57.73-57.73Z"/><path class="cls-8" d="m228.67,196.28l-27.12,27.12,27.12,27.12,27.12-27.12-27.12-27.12Z"/><path class="cls-5" d="m394.21,363.31l-27.12-27.12-76.35,76.35,27.12,27.12,76.35-76.35Z"/><path class="cls-4" d="m279.31,439.63l27.12-27.12-76.35-76.35-27.12,27.12,76.35,76.35Z"/><path class="cls-8" d="m228.67,388.98l27.12-27.12-27.12-27.12-27.12,27.12,27.12,27.12Z"/><path class="cls-8" d="m298.57,458.93l27.12-27.12-27.12-27.12-27.12,27.12,27.12,27.12Z"/><path class="cls-6" d="m342.01,363.66l27.12-27.12-57.73-57.73-27.12,27.12,57.73,57.73Z"/><path class="cls-8" d="m244.97,291.81c26.54,9.72,46.66,29.5,53.6,53.6,6.89-24.06,27.01-43.84,53.6-53.6-26.54-9.72-46.66-29.5-53.6-53.6-6.89,24.06-27.01,43.84-53.6,53.6Z"/><path class="cls-8" d="m367.97,389.57l27.12-27.12-27.12-27.12-27.12,27.12,27.12,27.12Z"/><path class="cls-8" d="m298.19,126.89l-27.12,27.12,27.12,27.12,27.12-27.12-27.12-27.12Z"/></svg>