<svg width="36" height="36" viewBox="0 0 36 36" fill="none" xmlns="http://www.w3.org/2000/svg">
<g id="Beta Logo">
<path id="Vector" d="M18 36C27.9411 36 36 27.9411 36 18C36 8.05887 27.9411 0 18 0C8.05887 0 0 8.05887 0 18C0 27.9411 8.05887 36 18 36Z" fill="white"/>
<g id="Group">
<g id="Group_2">
<path id="Vector_2" d="M23.464 16.7295C24.151 17.3295 24.535 17.9955 24.535 18.6975C24.535 21.3015 19.258 23.4105 12.748 23.4105C10.558 23.4105 8.50605 23.1705 6.74805 22.7535C8.61105 24.3765 12.709 25.5015 17.461 25.5015C23.9711 25.5015 29.248 23.3895 29.248 20.7885C29.251 19.0605 26.926 17.5515 23.464 16.7295Z" fill="#090909"/>
</g>
<g id="Group_3">
<path id="Vector_3" d="M21.679 10.499C22.252 10.997 22.573 11.552 22.573 12.137C22.573 14.306 18.175 16.067 12.751 16.067C10.924 16.067 9.217 15.8661 7.75 15.5211C9.304 16.8711 12.715 17.81 16.678 17.81C22.102 17.81 26.5 16.052 26.5 13.88C26.5 12.44 24.565 11.183 21.679 10.499Z" fill="#090909"/>
</g>
</g>
</g>
</svg>
