<svg width="24" height="24" viewBox="0 0 24 24" fill="none" xmlns="http://www.w3.org/2000/svg">
<g id="Social Media / Discord">
<path id="Vector" d="M18.9566 6.26686C21.2154 9.53576 22.3309 13.223 21.9139 17.4678C21.9121 17.4858 21.9026 17.5023 21.8876 17.5131C20.1771 18.7494 18.5199 19.4997 16.8859 19.9973C16.8732 20.0011 16.8596 20.0009 16.847 19.9967C16.8344 19.9925 16.8234 19.9845 16.8157 19.9739C16.4382 19.4569 16.0952 18.9118 15.7947 18.3394C15.7774 18.3057 15.7932 18.2651 15.8287 18.2518C16.3734 18.0498 16.8914 17.8077 17.3897 17.521C17.4289 17.4983 17.4314 17.443 17.3951 17.4164C17.2894 17.3391 17.1847 17.2579 17.0844 17.1767C17.0657 17.1617 17.0404 17.1588 17.0191 17.1688C13.7844 18.6392 10.2409 18.6392 6.96792 17.1688C6.94667 17.1595 6.92142 17.1627 6.90317 17.1775C6.80317 17.2587 6.69817 17.3391 6.59342 17.4164C6.55717 17.443 6.56017 17.4983 6.59967 17.521C7.09792 17.8022 7.61592 18.0498 8.15991 18.2528C8.19516 18.2661 8.21192 18.3057 8.19442 18.3394C7.90042 18.9126 7.55742 19.4576 7.17292 19.9746C7.15617 19.9955 7.12867 20.0051 7.10267 19.9973C5.47642 19.4997 3.81917 18.7494 2.10868 17.5131C2.09443 17.5023 2.08418 17.4851 2.08268 17.4671C1.73418 13.7954 2.44442 10.0776 5.03717 6.26612C5.04342 6.25603 5.05292 6.24816 5.06392 6.24348C6.33967 5.66717 7.70642 5.24318 9.13491 5.00104C9.16091 4.9971 9.18691 5.00891 9.20041 5.03155C9.37691 5.33915 9.57866 5.73361 9.71516 6.05597C11.2209 5.82958 12.7502 5.82958 14.2874 6.05597C14.4239 5.7405 14.6187 5.33915 14.7944 5.03155C14.8007 5.02032 14.8104 5.01132 14.8221 5.00584C14.8339 5.00036 14.8471 4.99868 14.8599 5.00104C16.2892 5.24392 17.6559 5.66791 18.9306 6.24348C18.9419 6.24816 18.9511 6.25603 18.9566 6.26686ZM10.4807 13.2481C10.4964 12.1626 9.69241 11.2645 8.68316 11.2645C7.68217 11.2645 6.88592 12.1548 6.88592 13.2481C6.88592 14.3412 7.69792 15.2315 8.68316 15.2315C9.68441 15.2315 10.4807 14.3412 10.4807 13.2481ZM17.1261 13.2481C17.1419 12.1626 16.3379 11.2645 15.3289 11.2645C14.3277 11.2645 13.5314 12.1548 13.5314 13.2481C13.5314 14.3412 14.3434 15.2315 15.3289 15.2315C16.3379 15.2315 17.1261 14.3412 17.1261 13.2481Z" fill="#F3F3F3"/>
</g>
</svg>
