<svg width="100" height="20" viewBox="0 0 100 20" fill="none" xmlns="http://www.w3.org/2000/svg">
<g id="Frame 2">
<g id="Group">
<path id="Vector" d="M18.5056 5.93965C18.5056 2.9615 16.139 0.537109 13.2318 0.537109H0V3.18487H13.2318C14.7127 3.18487 15.921 4.42266 15.921 5.93965C15.921 7.45665 14.7172 8.69443 13.2318 8.69443H0V11.3422H13.2318C14.7127 11.3422 15.921 12.58 15.921 14.097C15.921 15.614 14.7172 16.8518 13.2318 16.8518H0V19.4995H13.2318C16.139 19.4995 18.5056 17.0751 18.5056 14.097C18.5056 12.4683 17.797 11.0118 16.6795 10.0207C17.797 9.02484 18.5056 7.56833 18.5056 5.93965Z" fill="white"/>
<path id="Vector_2" d="M27.3262 5.93943C27.3262 7.5681 28.0348 9.02461 29.1522 10.0158C28.0348 11.0069 27.3262 12.4634 27.3262 14.0921C27.3262 17.0703 29.6928 19.4947 32.5999 19.4947H45.8317V16.8469H32.5999C31.1191 16.8469 29.9109 15.6091 29.9109 14.0921C29.9109 12.5751 31.1145 11.3373 32.5999 11.3373H45.8317V8.68958H32.5999C31.1191 8.68958 29.9109 7.45176 29.9109 5.93477C29.9109 4.41777 31.1145 3.17999 32.5999 3.17999H45.8317V0.532227H32.5999C29.6928 0.53688 27.3262 2.96128 27.3262 5.93943Z" fill="white"/>
<path id="Vector_3" d="M62.6125 0.537109H54.6543V3.18487H62.6125V19.4949H65.2016V3.18487H73.1599V0.537109H65.2016H62.6125Z" fill="white"/>
<path id="Vector_4" d="M97.2155 19.495H99.9999L93.5862 3.064C92.9775 1.50513 91.5284 0.5 89.8886 0.5C88.2489 0.5 86.7999 1.50513 86.1912 3.064L79.7773 19.495H82.5619L84.1562 15.4094H95.6212L97.2155 19.495ZM85.1828 12.7802L88.5896 4.05517C88.9166 3.21757 89.6661 3.15708 89.8886 3.15708C90.1112 3.15708 90.8608 3.22222 91.1833 4.05517L94.59 12.7802H85.1828Z" fill="white"/>
</g>
</g>
</svg>
