<svg width="36" height="36" viewBox="0 0 36 36" fill="none" xmlns="http://www.w3.org/2000/svg">
<path d="M18 36C27.9411 36 36 27.9411 36 18C36 8.05888 27.9411 0 18 0C8.05888 0 0 8.05888 0 18C0 27.9411 8.05888 36 18 36Z" fill="white"/>
<path d="M23.4638 16.7292C24.1508 17.3292 24.5348 17.9953 24.5348 18.6973C24.5348 21.3013 19.2578 23.4103 12.7478 23.4103C10.5578 23.4103 8.5058 23.1703 6.7478 22.7533C8.6108 24.3763 12.7088 25.5012 17.4608 25.5012C23.9708 25.5012 29.2478 23.3893 29.2478 20.7883C29.2508 19.0603 26.9258 17.5512 23.4638 16.7292Z" fill="black"/>
<path d="M21.6786 10.4991C22.2516 10.9971 22.5726 11.5521 22.5726 12.1371C22.5726 14.3061 18.1746 16.0671 12.7506 16.0671C10.9236 16.0671 9.21663 15.8661 7.74963 15.5211C9.30363 16.8711 12.7146 17.8101 16.6776 17.8101C22.1016 17.8101 26.4996 16.0521 26.4996 13.8801C26.4996 12.4401 24.5646 11.1831 21.6786 10.4991Z" fill="black"/>
</svg>
